<svg width="100" height="100" viewBox="0 0 100 100" fill="none" xmlns="http://www.w3.org/2000/svg">
<rect width="100" height="100" rx="10" fill="#292929"/>
<path d="M54.7994 38.3616L42.0853 47.5C41.4094 47.9148 41 48.634 41 49.4066V80.7363C41 82.5359 43.075 83.6136 44.6332 82.6232L56.9461 74.7972C57.604 74.3791 58 73.6701 58 72.9102V40.2403C58 38.457 56.3596 37.4042 54.7994 38.3616Z" fill="#F3F3F3"/>
<path d="M45 40.5473L56.8718 32.0775C58.5706 30.4786 58.3022 27.0115 56.3944 25.9109L44.7142 17.295C42.9583 16.2821 41 18.002 41 20.557V37.5918C41 40.4713 43 41.7549 45 40.5473Z" fill="#FFAA00"/>
</svg>
