<svg width="327" height="146" viewBox="0 0 327 146" fill="none" xmlns="http://www.w3.org/2000/svg">
<g clip-path="url(#clip0_198_3989)">
<path d="M54.5101 101.514L43.4154 88.6333C38.9744 91.1388 34.9647 92.6128 29.7548 91.1612C27.5586 102.37 23.886 109.816 12.6995 124.99L35.861 104.379C35.861 104.379 35.7448 101.18 37.639 99.5481C39.5332 97.9165 42.0275 97.7478 43.659 99.642C45.2906 101.536 45.1331 103.652 42.86 105.61C40.587 107.567 37.4926 106.273 37.4926 106.273L14.0047 126.505C30.3074 117.916 38.1207 115.242 49.6602 114.27C48.607 109.37 52.4547 103.724 54.5101 101.514Z" fill="#211F30"/>
<rect x="47.9502" y="80.1079" width="24" height="6" rx="3" transform="rotate(49.2595 47.9502 80.1079)" fill="#F96369"/>
<path d="M57.5597 84.3689C57.5597 70.2408 61.3151 57.4317 74.7358 45.8712C89.5103 33.1447 95.2359 33.4998 122.877 26.127C120.878 29.1689 118.704 35.8465 118.68 39.6412C118.675 40.4878 118.635 41.0008 118.611 41.227C118.867 39.6671 122.081 25.0909 147.093 15.1674C161.339 9.51529 170.328 10.6813 177.718 8.58509C171.279 12.1962 169.8 14.0687 167.49 17.3956C183.243 5.80562 213.779 7.08743 223.775 13.788C221.575 14.0241 220.566 14.557 219.007 15.9145C223.669 15.1981 234.952 16.0383 245.825 27.1296C251.454 32.8708 251.489 36.7693 249.595 38.401C245.41 42.0052 239.786 41.5703 227.409 36.3941L233.493 40.3927C220.59 42.2678 211.685 38.0593 200.624 39.0083C205.923 40.3004 208.425 41.3373 211.97 43.7532C192.057 39.7882 181.903 57.1131 161.874 49.949C166.496 53.0649 169.275 54.4887 174.905 55.8829C167.58 61.251 162.446 62.4721 153.015 64.1795C142.551 65.1305 135.963 62.999 124.419 57.7952C137.411 66.4893 144.89 69.3247 158.236 70.2409C148.885 74.0672 142.372 74.4472 128.357 71.5608C131.577 73.978 133.682 74.925 137.966 75.8218C131.972 80.1162 128.569 82.0377 122.423 84.5909C116.971 86.3243 110.683 86.8248 101.816 85.1835C109.023 89.1214 112.797 90.5513 119.077 91.4324C119.077 91.4324 109.658 94.1622 103.627 94.1815C95.612 94.2073 83.8193 88.8066 83.8193 88.8066C88.735 92.8701 92.1824 94.5246 99.5652 96.3609C99.5652 96.3609 80.3795 101.668 60.1704 87.3997C71.5355 77.6102 88.2908 60.3653 121.407 45.8712C158.678 29.5582 179.639 24.0145 204.602 25.481C199.331 25.0676 186.318 17.3426 137.382 36.0706C87.7507 55.0644 57.5597 84.3689 57.5597 84.3689Z" fill="#8E8C95"/>
<path d="M69.4599 128C69.4599 125.321 69.9826 123.851 71.0279 123.59L77.104 121.434L76.026 122.904V88.604L77.2019 90.074L71.0279 88.8C69.9826 88.604 69.4599 87.1667 69.4599 84.488C71.8773 84.096 74.0333 83.802 75.9279 83.606C77.8226 83.41 79.75 83.312 81.71 83.312C85.1073 83.312 86.806 85.3047 86.806 89.29V122.61L85.6299 121.336L93.862 123.296C93.862 124.407 93.7313 125.289 93.4699 125.942C93.274 126.595 92.8166 127.281 92.0979 128H69.4599ZM80.926 74.492C78.966 74.492 77.4633 73.9367 76.4179 72.826C75.3726 71.7153 74.8499 70.2453 74.8499 68.416C74.8499 66.652 75.4706 65.2147 76.712 64.104C77.9533 62.928 79.358 62.34 80.926 62.34C82.9513 62.34 84.4866 62.8953 85.5319 64.006C86.6426 65.1167 87.198 66.5867 87.198 68.416C87.198 70.18 86.5446 71.65 85.238 72.826C83.9966 73.9367 82.5593 74.492 80.926 74.492ZM101.329 128C101.329 125.387 101.852 123.917 102.897 123.59L108.483 121.434L107.405 123.1V89.192L108.581 90.662L102.897 89.388C101.852 89.1267 101.329 87.6893 101.329 85.076C104.204 84.6187 106.425 84.292 107.993 84.096C109.561 83.9 110.868 83.802 111.913 83.802C113.938 83.802 115.376 84.2593 116.225 85.174C117.074 86.0887 117.499 87.5913 117.499 89.682V92.524L117.009 92.23H118.185C120.929 89.29 123.967 86.9707 127.299 85.272C130.631 83.5733 133.832 82.724 136.903 82.724C144.482 82.724 148.271 87.8853 148.271 98.208V122.61L147.095 121.238L154.347 123.296C154.347 124.407 154.216 125.289 153.955 125.942C153.759 126.595 153.334 127.281 152.681 128H132.591C132.591 125.387 133.114 123.917 134.159 123.59L138.569 122.022L137.589 123.688V99.188C137.589 93.112 135.335 90.074 130.827 90.074C128.998 90.074 127.234 90.4333 125.535 91.152C123.836 91.8707 122.268 92.7853 120.831 93.896C119.459 94.9413 118.348 96.052 117.499 97.228L118.185 95.464V123.198L117.009 121.728L123.281 123.296C123.281 124.407 123.15 125.289 122.889 125.942C122.628 126.595 122.138 127.281 121.419 128H101.329ZM160.642 128C160.642 126.628 160.773 125.615 161.034 124.962C161.295 124.243 161.687 123.786 162.21 123.59L168.286 121.434L167.208 122.904V61.458L168.384 62.928L162.21 61.654C161.165 61.3927 160.642 59.9553 160.642 57.342C163.059 56.95 165.215 56.656 167.11 56.46C169.005 56.1987 170.899 56.068 172.794 56.068C176.257 56.068 177.988 58.0933 177.988 62.144V123.198L176.616 121.728L183.084 123.296C183.084 124.407 182.953 125.289 182.692 125.942C182.431 126.595 181.941 127.281 181.222 128H160.642ZM203.86 129.176C201.835 129.176 199.581 128.425 197.098 126.922C194.615 125.419 191.839 122.839 188.768 119.18C185.697 115.456 182.137 110.36 178.086 103.892L193.962 89.682L193.374 91.054L187.494 89.388C187.494 87.5587 187.984 85.958 188.964 84.586H208.564C208.564 86.154 208.466 87.2647 208.27 87.918C208.074 88.5713 207.649 88.996 206.996 89.192L197.882 92.328L203.958 88.506L186.024 104.676L187.298 100.952C189.519 104.219 191.969 107.355 194.648 110.36C197.327 113.3 200.071 115.913 202.88 118.2C205.689 120.487 208.368 122.283 210.916 123.59C210.916 125.289 210.263 126.661 208.956 127.706C207.649 128.686 205.951 129.176 203.86 129.176ZM235.402 129.176C231.22 129.176 227.529 128.261 224.328 126.432C221.192 124.603 218.742 122.087 216.978 118.886C215.279 115.619 214.43 111.863 214.43 107.616C214.43 102.912 215.442 98.698 217.468 94.974C219.558 91.1847 222.335 88.212 225.798 86.056C229.26 83.8347 233.115 82.724 237.362 82.724C241.02 82.724 244.189 83.508 246.868 85.076C249.546 86.644 251.637 88.8327 253.14 91.642C254.642 94.4513 255.394 97.7507 255.394 101.54C255.394 102.977 255.165 103.957 254.708 104.48C254.25 104.937 253.597 105.166 252.748 105.166H222.074V101.148L246.574 100.462L245.398 101.834C245.528 98.698 245.202 96.0193 244.418 93.798C243.699 91.5767 242.654 89.878 241.282 88.702C239.91 87.4607 238.276 86.84 236.382 86.84C233.311 86.84 230.796 88.3753 228.836 91.446C226.876 94.5167 225.896 98.796 225.896 104.284C225.896 108.204 226.451 111.601 227.562 114.476C228.672 117.285 230.306 119.474 232.462 121.042C234.683 122.545 237.362 123.296 240.498 123.296C242.98 123.296 245.332 122.741 247.554 121.63C249.84 120.454 251.964 118.788 253.924 116.632L255.394 119.768C253.956 121.597 252.16 123.231 250.004 124.668C247.848 126.105 245.528 127.216 243.046 128C240.563 128.784 238.015 129.176 235.402 129.176ZM263.45 128C263.45 125.452 263.973 123.982 265.018 123.59L270.604 121.434L269.526 123.1V89.192L270.702 90.662L265.018 89.388C264.561 89.2573 264.169 88.8327 263.842 88.114C263.581 87.33 263.45 86.3173 263.45 85.076C266.456 84.6187 268.71 84.292 270.212 84.096C271.715 83.9 272.989 83.802 274.034 83.802C275.994 83.802 277.399 84.292 278.248 85.272C279.163 86.1867 279.62 87.7873 279.62 90.074V93.7L278.836 92.818H280.11C281.744 89.8127 283.802 87.3953 286.284 85.566C288.767 83.6713 291.184 82.724 293.536 82.724C296.15 82.724 298.044 83.312 299.22 84.488C300.462 85.664 301.082 87.232 301.082 89.192C301.082 90.6947 300.592 92.0013 299.612 93.112C298.632 94.2227 297.391 94.778 295.888 94.778C295.039 93.0793 294.124 91.936 293.144 91.348C292.164 90.76 291.086 90.466 289.91 90.466C288.212 90.466 286.415 91.1847 284.52 92.622C282.626 93.994 280.96 95.6927 279.522 97.718L280.306 95.562V123.198L278.836 121.14L287.656 123.198C287.656 124.309 287.526 125.223 287.264 125.942C287.068 126.595 286.611 127.281 285.892 128H263.45Z" fill="#292637"/>
<path d="M73.2358 67.5C73.2358 71.6421 76.5937 75 80.7358 75C84.878 75 88.2358 71.6421 88.2358 67.5C88.2358 63.3579 84.878 60 80.7358 60C76.5937 60 73.2358 63.3579 73.2358 67.5Z" fill="white"/>
<path d="M301.236 120.5C301.236 124.642 304.594 128 308.736 128C312.878 128 316.236 124.642 316.236 120.5C316.236 116.358 312.878 113 308.736 113C304.594 113 301.236 116.358 301.236 120.5Z" fill="#F96369"/>
</g>
<defs>
<clipPath id="clip0_198_3989">
<rect width="327" height="146" fill="white"/>
</clipPath>
</defs>
</svg>
