<svg width="326" height="151" viewBox="0 0 326 151" fill="none" xmlns="http://www.w3.org/2000/svg">
<g clip-path="url(#clip0_198_3991)">
<path d="M54.5101 106.514L43.4154 93.6333C38.9744 96.1388 34.9647 97.6128 29.7548 96.1612C27.5586 107.37 23.886 114.816 12.6995 129.99L35.861 109.379C35.861 109.379 35.7448 106.18 37.639 104.548C39.5332 102.917 42.0275 102.748 43.659 104.642C45.2906 106.536 45.1331 108.652 42.86 110.61C40.587 112.567 37.4926 111.273 37.4926 111.273L14.0047 131.505C30.3074 122.916 38.1207 120.242 49.6602 119.27C48.607 114.37 52.4547 108.724 54.5101 106.514Z" fill="#D9D9DC"/>
<rect x="47.9502" y="85.1079" width="24" height="6" rx="3" transform="rotate(49.2595 47.9502 85.1079)" fill="#E35A60"/>
<path d="M57.5597 89.3689C57.5597 75.2408 61.3151 62.4317 74.7358 50.8712C89.5103 38.1447 95.2359 38.4998 122.877 31.127C120.878 34.1689 118.704 40.8465 118.68 44.6412C118.675 45.4878 118.635 46.0008 118.611 46.227C118.867 44.6671 122.081 30.0909 147.093 20.1674C161.339 14.5153 170.328 15.6813 177.718 13.5851C171.279 17.1962 169.8 19.0687 167.49 22.3956C183.243 10.8056 213.779 12.0874 223.775 18.788C221.575 19.0241 220.566 19.557 219.007 20.9145C223.669 20.1981 234.952 21.0383 245.825 32.1296C251.454 37.8708 251.489 41.7693 249.595 43.401C245.41 47.0052 239.786 46.5703 227.409 41.3941L233.493 45.3927C220.59 47.2678 211.685 43.0593 200.624 44.0083C205.923 45.3004 208.425 46.3373 211.97 48.7532C192.057 44.7882 181.903 62.1131 161.874 54.949C166.496 58.0649 169.275 59.4887 174.905 60.8829C167.58 66.251 162.446 67.4721 153.015 69.1795C142.551 70.1305 135.963 67.999 124.419 62.7952C137.411 71.4893 144.89 74.3247 158.236 75.2409C148.885 79.0672 142.372 79.4472 128.357 76.5608C131.577 78.978 133.682 79.925 137.966 80.8218C131.972 85.1162 128.569 87.0377 122.423 89.5909C116.971 91.3243 110.683 91.8248 101.816 90.1835C109.023 94.1214 112.797 95.5513 119.077 96.4324C119.077 96.4324 109.658 99.1622 103.627 99.1815C95.612 99.2073 83.8193 93.8066 83.8193 93.8066C88.735 97.8701 92.1824 99.5246 99.5652 101.361C99.5652 101.361 80.3795 106.668 60.1704 92.3997C71.5355 82.6102 88.2908 65.3653 121.407 50.8712C158.678 34.5582 179.639 29.0145 204.602 30.481C199.331 30.0676 186.318 22.3426 137.382 41.0706C87.7507 60.0644 57.5597 89.3689 57.5597 89.3689Z" fill="#5B5966"/>
<path d="M69.4599 133C69.4599 130.321 69.9826 128.851 71.0279 128.59L77.104 126.434L76.026 127.904V93.604L77.2019 95.074L71.0279 93.8C69.9826 93.604 69.4599 92.1667 69.4599 89.488C71.8773 89.096 74.0333 88.802 75.9279 88.606C77.8226 88.41 79.75 88.312 81.71 88.312C85.1073 88.312 86.806 90.3047 86.806 94.29V127.61L85.6299 126.336L93.862 128.296C93.862 129.407 93.7313 130.289 93.4699 130.942C93.274 131.595 92.8166 132.281 92.0979 133H69.4599ZM80.926 79.492C78.966 79.492 77.4633 78.9367 76.4179 77.826C75.3726 76.7153 74.8499 75.2453 74.8499 73.416C74.8499 71.652 75.4706 70.2147 76.712 69.104C77.9533 67.928 79.358 67.34 80.926 67.34C82.9513 67.34 84.4866 67.8953 85.5319 69.006C86.6426 70.1167 87.198 71.5867 87.198 73.416C87.198 75.18 86.5446 76.65 85.238 77.826C83.9966 78.9367 82.5593 79.492 80.926 79.492ZM101.329 133C101.329 130.387 101.852 128.917 102.897 128.59L108.483 126.434L107.405 128.1V94.192L108.581 95.662L102.897 94.388C101.852 94.1267 101.329 92.6893 101.329 90.076C104.204 89.6187 106.425 89.292 107.993 89.096C109.561 88.9 110.868 88.802 111.913 88.802C113.938 88.802 115.376 89.2593 116.225 90.174C117.074 91.0887 117.499 92.5913 117.499 94.682V97.524L117.009 97.23H118.185C120.929 94.29 123.967 91.9707 127.299 90.272C130.631 88.5733 133.832 87.724 136.903 87.724C144.482 87.724 148.271 92.8853 148.271 103.208V127.61L147.095 126.238L154.347 128.296C154.347 129.407 154.216 130.289 153.955 130.942C153.759 131.595 153.334 132.281 152.681 133H132.591C132.591 130.387 133.114 128.917 134.159 128.59L138.569 127.022L137.589 128.688V104.188C137.589 98.112 135.335 95.074 130.827 95.074C128.998 95.074 127.234 95.4333 125.535 96.152C123.836 96.8707 122.268 97.7853 120.831 98.896C119.459 99.9413 118.348 101.052 117.499 102.228L118.185 100.464V128.198L117.009 126.728L123.281 128.296C123.281 129.407 123.15 130.289 122.889 130.942C122.628 131.595 122.138 132.281 121.419 133H101.329ZM160.642 133C160.642 131.628 160.773 130.615 161.034 129.962C161.295 129.243 161.687 128.786 162.21 128.59L168.286 126.434L167.208 127.904V66.458L168.384 67.928L162.21 66.654C161.165 66.3927 160.642 64.9553 160.642 62.342C163.059 61.95 165.215 61.656 167.11 61.46C169.005 61.1987 170.899 61.068 172.794 61.068C176.257 61.068 177.988 63.0933 177.988 67.144V128.198L176.616 126.728L183.084 128.296C183.084 129.407 182.953 130.289 182.692 130.942C182.431 131.595 181.941 132.281 181.222 133H160.642ZM203.86 134.176C201.835 134.176 199.581 133.425 197.098 131.922C194.615 130.419 191.839 127.839 188.768 124.18C185.697 120.456 182.137 115.36 178.086 108.892L193.962 94.682L193.374 96.054L187.494 94.388C187.494 92.5587 187.984 90.958 188.964 89.586H208.564C208.564 91.154 208.466 92.2647 208.27 92.918C208.074 93.5713 207.649 93.996 206.996 94.192L197.882 97.328L203.958 93.506L186.024 109.676L187.298 105.952C189.519 109.219 191.969 112.355 194.648 115.36C197.327 118.3 200.071 120.913 202.88 123.2C205.689 125.487 208.368 127.283 210.916 128.59C210.916 130.289 210.263 131.661 208.956 132.706C207.649 133.686 205.951 134.176 203.86 134.176ZM235.402 134.176C231.22 134.176 227.529 133.261 224.328 131.432C221.192 129.603 218.742 127.087 216.978 123.886C215.279 120.619 214.43 116.863 214.43 112.616C214.43 107.912 215.442 103.698 217.468 99.974C219.558 96.1847 222.335 93.212 225.798 91.056C229.26 88.8347 233.115 87.724 237.362 87.724C241.02 87.724 244.189 88.508 246.868 90.076C249.546 91.644 251.637 93.8327 253.14 96.642C254.642 99.4513 255.394 102.751 255.394 106.54C255.394 107.977 255.165 108.957 254.708 109.48C254.25 109.937 253.597 110.166 252.748 110.166H222.074V106.148L246.574 105.462L245.398 106.834C245.528 103.698 245.202 101.019 244.418 98.798C243.699 96.5767 242.654 94.878 241.282 93.702C239.91 92.4607 238.276 91.84 236.382 91.84C233.311 91.84 230.796 93.3753 228.836 96.446C226.876 99.5167 225.896 103.796 225.896 109.284C225.896 113.204 226.451 116.601 227.562 119.476C228.672 122.285 230.306 124.474 232.462 126.042C234.683 127.545 237.362 128.296 240.498 128.296C242.98 128.296 245.332 127.741 247.554 126.63C249.84 125.454 251.964 123.788 253.924 121.632L255.394 124.768C253.956 126.597 252.16 128.231 250.004 129.668C247.848 131.105 245.528 132.216 243.046 133C240.563 133.784 238.015 134.176 235.402 134.176ZM263.45 133C263.45 130.452 263.973 128.982 265.018 128.59L270.604 126.434L269.526 128.1V94.192L270.702 95.662L265.018 94.388C264.561 94.2573 264.169 93.8327 263.842 93.114C263.581 92.33 263.45 91.3173 263.45 90.076C266.456 89.6187 268.71 89.292 270.212 89.096C271.715 88.9 272.989 88.802 274.034 88.802C275.994 88.802 277.399 89.292 278.248 90.272C279.163 91.1867 279.62 92.7873 279.62 95.074V98.7L278.836 97.818H280.11C281.744 94.8127 283.802 92.3953 286.284 90.566C288.767 88.6713 291.184 87.724 293.536 87.724C296.15 87.724 298.044 88.312 299.22 89.488C300.462 90.664 301.082 92.232 301.082 94.192C301.082 95.6947 300.592 97.0013 299.612 98.112C298.632 99.2227 297.391 99.778 295.888 99.778C295.039 98.0793 294.124 96.936 293.144 96.348C292.164 95.76 291.086 95.466 289.91 95.466C288.212 95.466 286.415 96.1847 284.52 97.622C282.626 98.994 280.96 100.693 279.522 102.718L280.306 100.562V128.198L278.836 126.14L287.656 128.198C287.656 129.309 287.526 130.223 287.264 130.942C287.068 131.595 286.611 132.281 285.892 133H263.45Z" fill="#D9D9DC"/>
<path d="M73.2358 72.5C73.2358 76.6421 76.5937 80 80.7358 80C84.878 80 88.2358 76.6421 88.2358 72.5C88.2358 68.3579 84.878 65 80.7358 65C76.5937 65 73.2358 68.3579 73.2358 72.5Z" fill="#030014"/>
<path d="M301.236 125.5C301.236 129.642 304.594 133 308.736 133C312.878 133 316.236 129.642 316.236 125.5C316.236 121.358 312.878 118 308.736 118C304.594 118 301.236 121.358 301.236 125.5Z" fill="#E35A60"/>
</g>
<defs>
<clipPath id="clip0_198_3991">
<rect width="326" height="151" fill="white"/>
</clipPath>
</defs>
</svg>
